<svg width="24" height="24" viewBox="0 0 24 24" fill="none" xmlns="http://www.w3.org/2000/svg">
<g clip-path="url(#clip0_506_2769)">
<path d="M12.055 0C12.0486 0.00643032 12.0357 0.00643032 12.0164 0.00643032C5.50895 0.00643032 0.216797 5.29858 0.216797 11.8061C0.216797 14.4618 1.12347 17.0403 2.78249 19.1173L1.0656 23.1041C0.924132 23.4321 1.07846 23.8115 1.39998 23.9465C1.51572 23.9979 1.64433 24.0108 1.7665 23.9915L8.06178 22.8855C9.32213 23.342 10.6468 23.5735 11.9843 23.5671C18.4918 23.5671 23.7839 18.275 23.7839 11.7675C23.7968 5.27929 18.5432 0.00643032 12.055 0ZM11.9907 22.2875C10.7497 22.2875 9.52147 22.0624 8.35758 21.6252C8.24826 21.5801 8.13252 21.5737 8.01677 21.593L2.71819 22.519L4.12 19.2588C4.21645 19.0337 4.17787 18.7701 4.01711 18.5836C3.25834 17.7027 2.65389 16.6995 2.22949 15.6128C1.75364 14.3975 1.50929 13.105 1.50929 11.7996C1.50929 5.99949 6.22914 1.28606 12.0229 1.28606C17.8037 1.2732 22.4978 5.94804 22.5043 11.7289C22.5043 11.7418 22.5043 11.7546 22.5043 11.7675C22.5043 17.5741 17.7844 22.2875 11.9907 22.2875Z" fill="#0086E1"/>
<path d="M11.4884 9.43359H8.01608C7.66241 9.43359 7.37305 9.72296 7.37305 10.0766C7.37305 10.4303 7.66241 10.7197 8.01608 10.7197H11.4884C11.8421 10.7197 12.1315 10.4303 12.1315 10.0766C12.1315 9.72296 11.8421 9.43359 11.4884 9.43359Z" fill="#0086E1"/>
<path d="M15.9897 12.6484H8.01608C7.66241 12.6484 7.37305 12.9378 7.37305 13.2915C7.37305 13.6451 7.66241 13.9345 8.01608 13.9345H15.9897C16.3433 13.9345 16.6327 13.6451 16.6327 13.2915C16.6327 12.9378 16.3433 12.6484 15.9897 12.6484Z" fill="#0086E1"/>
</g>
<defs>
<clipPath id="clip0_506_2769">
<rect width="24" height="24" fill="white"/>
</clipPath>
</defs>
</svg>
