<svg width="26" height="26" viewBox="0 0 26 26" fill="none" xmlns="http://www.w3.org/2000/svg">
<path d="M7.36328 10.6641C7.36328 11.225 6.90859 11.6797 6.34766 11.6797C5.78673 11.6797 5.33203 11.225 5.33203 10.6641C5.33203 10.1031 5.78673 9.64844 6.34766 9.64844C6.90859 9.64844 7.36328 10.1031 7.36328 10.6641ZM16.1992 10.6641C16.1992 10.1031 15.7445 9.64844 15.1836 9.64844C14.6227 9.64844 14.168 10.1031 14.168 10.6641C14.168 11.225 14.6227 11.6797 15.1836 11.6797C15.7445 11.6797 16.1992 11.225 16.1992 10.6641ZM20.6172 10.6641C20.6172 10.1031 20.1625 9.64844 19.6016 9.64844C19.0406 9.64844 18.5859 10.1031 18.5859 10.6641C18.5859 11.225 19.0406 11.6797 19.6016 11.6797C20.1625 11.6797 20.6172 11.225 20.6172 10.6641ZM7.36328 15.082C7.36328 14.5211 6.90859 14.0664 6.34766 14.0664C5.78673 14.0664 5.33203 14.5211 5.33203 15.082C5.33203 15.643 5.78673 16.0977 6.34766 16.0977C6.90859 16.0977 7.36328 15.643 7.36328 15.082ZM6.34766 18.4844C5.78673 18.4844 5.33203 18.9391 5.33203 19.5C5.33203 20.0609 5.78673 20.5156 6.34766 20.5156C6.90859 20.5156 7.36328 20.0609 7.36328 19.5C7.36328 18.9391 6.90859 18.4844 6.34766 18.4844ZM11.7812 10.6641C11.7812 10.1031 11.3266 9.64844 10.7656 9.64844C10.2047 9.64844 9.75 10.1031 9.75 10.6641C9.75 11.225 10.2047 11.6797 10.7656 11.6797C11.3266 11.6797 11.7812 11.225 11.7812 10.6641ZM11.7812 15.082C11.7812 14.5211 11.3266 14.0664 10.7656 14.0664C10.2047 14.0664 9.75 14.5211 9.75 15.082C9.75 15.643 10.2047 16.0977 10.7656 16.0977C11.3266 16.0977 11.7812 15.643 11.7812 15.082ZM10.7656 18.4844C10.2047 18.4844 9.75 18.9391 9.75 19.5C9.75 20.0609 10.2047 20.5156 10.7656 20.5156C11.3266 20.5156 11.7812 20.0609 11.7812 19.5C11.7812 18.9391 11.3266 18.4844 10.7656 18.4844ZM26 19.8555C26 23.2436 23.2436 26 19.8555 26C16.4673 26 13.7109 23.2436 13.7109 19.8555C13.7109 16.4673 16.4673 13.7109 19.8555 13.7109C23.2436 13.7109 26 16.4673 26 19.8555ZM23.9688 19.8555C23.9688 17.5874 22.1235 15.7422 19.8555 15.7422C17.5874 15.7422 15.7422 17.5874 15.7422 19.8555C15.7422 22.1236 17.5874 23.9688 19.8555 23.9688C22.1235 23.9688 23.9688 22.1236 23.9688 19.8555ZM21.3281 18.8398H20.8711V17.7734C20.8711 17.2125 20.4164 16.7578 19.8555 16.7578C19.2945 16.7578 18.8398 17.2125 18.8398 17.7734V19.8555C18.8398 20.4164 19.2945 20.8711 19.8555 20.8711H21.3281C21.8891 20.8711 22.3438 20.4164 22.3438 19.8555C22.3438 19.2945 21.8891 18.8398 21.3281 18.8398ZM21.9375 2.03125H20.6172V1.01562C20.6172 0.454695 20.1625 0 19.6016 0C19.0406 0 18.5859 0.454695 18.5859 1.01562V2.03125H13.9648V1.01562C13.9648 0.454695 13.5101 0 12.9492 0C12.3883 0 11.9336 0.454695 11.9336 1.01562V2.03125H7.36328V1.01562C7.36328 0.454695 6.90859 0 6.34766 0C5.78673 0 5.33203 0.454695 5.33203 1.01562V2.03125H4.0625C1.82244 2.03125 0 3.85369 0 6.09375V21.9375C0 24.1776 1.82244 26 4.0625 26H11.832C12.393 26 12.8477 25.5453 12.8477 24.9844C12.8477 24.4234 12.393 23.9688 11.832 23.9688H4.0625C2.94247 23.9688 2.03125 23.0575 2.03125 21.9375V6.09375C2.03125 4.97372 2.94247 4.0625 4.0625 4.0625H5.33203V5.07812C5.33203 5.63905 5.78673 6.09375 6.34766 6.09375C6.90859 6.09375 7.36328 5.63905 7.36328 5.07812V4.0625H11.9336V5.07812C11.9336 5.63905 12.3883 6.09375 12.9492 6.09375C13.5101 6.09375 13.9648 5.63905 13.9648 5.07812V4.0625H18.5859V5.07812C18.5859 5.63905 19.0406 6.09375 19.6016 6.09375C20.1625 6.09375 20.6172 5.63905 20.6172 5.07812V4.0625H21.9375C23.0575 4.0625 23.9688 4.97372 23.9688 6.09375V11.8828C23.9688 12.4437 24.4234 12.8984 24.9844 12.8984C25.5453 12.8984 26 12.4437 26 11.8828V6.09375C26 3.85369 24.1776 2.03125 21.9375 2.03125Z" fill="url(#paint0_linear_754_2997)"/>
<defs>
<linearGradient id="paint0_linear_754_2997" x1="0" y1="13" x2="26" y2="13" gradientUnits="userSpaceOnUse">
<stop stop-color="#00F2FE"/>
<stop offset="0.021" stop-color="#03EFFE"/>
<stop offset="0.293" stop-color="#24D2FE"/>
<stop offset="0.554" stop-color="#3CBDFE"/>
<stop offset="0.796" stop-color="#4AB0FE"/>
<stop offset="1" stop-color="#4FACFE"/>
</linearGradient>
</defs>
</svg>
