<svg width="24" height="24" viewBox="0 0 24 24" fill="none" xmlns="http://www.w3.org/2000/svg">
<path d="M5.89606 20.1924C3.8795 20.1924 1.73633 20.8596 1.73633 22.0961C1.73633 23.3325 3.87955 23.9998 5.89606 23.9998C7.91258 23.9998 10.0558 23.3325 10.0558 22.0961C10.0558 20.8596 7.91258 20.1924 5.89606 20.1924Z" fill="#EFEFEF"/>
<path d="M5.89617 7.21436C2.65148 7.21436 0.0117188 9.85412 0.0117188 13.0988C0.0117188 15.1134 0.970031 17.2794 2.86008 19.5367C4.25161 21.1986 5.62303 22.2666 5.68078 22.3113C5.74416 22.3604 5.82019 22.3849 5.89617 22.3849C5.97216 22.3849 6.04814 22.3604 6.11156 22.3113C6.16927 22.2666 7.54078 21.1986 8.93227 19.5367C10.8223 17.2794 11.7806 15.1133 11.7806 13.0988C11.7806 9.85412 9.14086 7.21436 5.89617 7.21436ZM8.10281 13.0988C8.10281 14.3175 7.11487 15.3054 5.89617 15.3054C4.67752 15.3054 3.68958 14.3175 3.68958 13.0988C3.68958 11.8802 4.67752 10.8922 5.89617 10.8922C7.11487 10.8922 8.10281 11.8802 8.10281 13.0988Z" fill="#129FFF"/>
<path d="M21.5882 10.3499C20.9943 10.1079 20.2122 9.97461 19.386 9.97461C18.5599 9.97461 17.7777 10.1079 17.1838 10.3499C16.4897 10.6328 16.1074 11.048 16.1074 11.5192C16.1074 11.9903 16.4896 12.4056 17.1838 12.6884C17.7777 12.9305 18.5598 13.0638 19.386 13.0638C20.2122 13.0638 20.9943 12.9305 21.5882 12.6884C22.2823 12.4056 22.6645 11.9903 22.6645 11.5192C22.6645 11.048 22.2823 10.6328 21.5882 10.3499Z" fill="#EFEFEF"/>
<path d="M5.89606 23.121C4.13328 23.121 2.2738 22.6111 1.83369 21.6567C1.77036 21.7941 1.73633 21.9407 1.73633 22.0963C1.73633 23.3328 3.87955 24 5.89606 24C7.91258 24 10.0558 23.3328 10.0558 22.0963C10.0558 21.9407 10.0218 21.7941 9.95844 21.6567C9.51837 22.6111 7.65889 23.121 5.89606 23.121Z" fill="#DEDEDE"/>
<path d="M21.5882 11.8098C20.9943 12.0518 20.2122 12.1851 19.386 12.1851C18.5598 12.1851 17.7777 12.0518 17.1837 11.8098C16.7156 11.619 16.39 11.3678 16.2272 11.0801C16.1486 11.219 16.1074 11.3662 16.1074 11.5196C16.1074 11.9908 16.4896 12.4061 17.1838 12.6889C17.7777 12.9309 18.5598 13.0642 19.386 13.0642C20.2122 13.0642 20.9943 12.9309 21.5882 12.6889C22.2823 12.4061 22.6645 11.9908 22.6645 11.5196C22.6645 11.3663 22.6233 11.219 22.5447 11.0801C22.3819 11.3678 22.0563 11.619 21.5882 11.8098Z" fill="#DEDEDE"/>
<path d="M19.3853 0C16.8466 0 14.7812 2.06541 14.7812 4.60406C14.7812 6.17203 15.5242 7.85433 16.9894 9.60436C18.0645 10.8884 19.1253 11.7144 19.17 11.749C19.2334 11.7981 19.3094 11.8226 19.3854 11.8226C19.4613 11.8226 19.5373 11.7981 19.6007 11.749C19.6454 11.7144 20.7063 10.8884 21.7813 9.60436C23.2465 7.85438 23.9894 6.17208 23.9894 4.60406C23.9893 2.06541 21.924 0 19.3853 0ZM21.0813 4.60406C21.0813 5.54072 20.322 6.30005 19.3853 6.30005C18.4487 6.30005 17.6893 5.54072 17.6893 4.60406C17.6893 3.66741 18.4487 2.90813 19.3853 2.90813C20.322 2.90813 21.0813 3.66741 21.0813 4.60406Z" fill="#129FFF"/>
<path d="M5.89528 7.21436C5.67117 7.21436 5.45011 7.22739 5.23247 7.2519C8.16623 7.58228 10.4541 10.0782 10.4541 13.0988C10.4541 15.1134 9.49575 17.2794 7.6057 19.5367C6.67748 20.6453 5.75883 21.4889 5.23242 21.9415C5.4952 22.1675 5.66067 22.2964 5.67989 22.3112C5.74327 22.3603 5.8193 22.3848 5.89528 22.3848C5.97127 22.3848 6.04725 22.3603 6.11067 22.3112C6.16838 22.2666 7.53989 21.1986 8.93138 19.5366C10.8214 17.2793 11.7797 15.1133 11.7797 13.0988C11.7797 9.85412 9.13997 7.21436 5.89528 7.21436Z" fill="#0086E1"/>
<path d="M19.3855 0C19.1605 0 18.9392 0.0165 18.7227 0.0479062C20.9483 0.370219 22.6639 2.29045 22.6639 4.60406C22.6639 6.17203 21.9209 7.85433 20.4558 9.60436C19.795 10.3935 19.1401 11.0093 18.7227 11.375C18.9844 11.6043 19.1529 11.7357 19.1701 11.7489C19.2335 11.798 19.3095 11.8225 19.3855 11.8225C19.4615 11.8225 19.5374 11.798 19.6009 11.7489C19.6455 11.7144 20.7064 10.8883 21.7814 9.60431C23.2467 7.85433 23.9896 6.17203 23.9896 4.60402C23.9895 2.06541 21.9242 0 19.3855 0Z" fill="#0086E1"/>
<path d="M11.3558 22.4486C11.1622 22.4486 11.0048 22.2922 11.0039 22.0983C11.003 21.9039 11.1599 21.7456 11.3543 21.7448L11.8191 21.7427C11.8196 21.7427 11.8201 21.7427 11.8207 21.7427C12.0143 21.7427 12.1718 21.8991 12.1726 22.093C12.1735 22.2874 12.0166 22.4457 11.8223 22.4465L11.3574 22.4486C11.3569 22.4486 11.3563 22.4486 11.3558 22.4486ZM13.2151 22.4402C13.0215 22.4402 12.8641 22.2837 12.8632 22.0899C12.8623 21.8955 13.0192 21.7372 13.2136 21.7363L13.6784 21.7342C13.6789 21.7342 13.6794 21.7342 13.68 21.7342C13.8736 21.7342 14.031 21.8907 14.0319 22.0846C14.0328 22.2789 13.8759 22.4372 13.6816 22.4381L13.2167 22.4402C13.2162 22.4402 13.2156 22.4402 13.2151 22.4402ZM15.0744 22.4317C14.8808 22.4317 14.7234 22.2752 14.7226 22.0814C14.7217 21.887 14.8785 21.7287 15.0729 21.7278L15.5377 21.7257C15.5382 21.7257 15.5387 21.7257 15.5393 21.7257C15.7329 21.7257 15.8903 21.8822 15.8912 22.0761C15.892 22.2705 15.7352 22.4288 15.5408 22.4296L15.0761 22.4317C15.0755 22.4317 15.075 22.4317 15.0744 22.4317ZM16.9338 22.4233C16.7402 22.4233 16.5828 22.2668 16.5819 22.0729C16.581 21.8786 16.7378 21.7202 16.9322 21.7194L17.397 21.7173C17.3976 21.7173 17.3981 21.7173 17.3987 21.7173C17.5923 21.7173 17.7497 21.8738 17.7506 22.0676C17.7514 22.262 17.5946 22.4203 17.4002 22.4212L16.9354 22.4233C16.9349 22.4233 16.9343 22.4233 16.9338 22.4233ZM18.7931 22.4149C18.5995 22.4149 18.4421 22.2584 18.4412 22.0645C18.4403 21.8702 18.5971 21.7119 18.7915 21.711L19.2563 21.7089C19.2569 21.7089 19.2574 21.7089 19.258 21.7089C19.4516 21.7089 19.609 21.8654 19.6099 22.0592C19.6108 22.2536 19.4539 22.4119 19.2595 22.4128L18.7947 22.4149C18.7942 22.4149 18.7936 22.4149 18.7931 22.4149ZM20.6524 22.4064C20.4589 22.4064 20.3015 22.25 20.3005 22.0562C20.2996 21.8619 20.4563 21.7035 20.6508 21.7026L20.7166 21.7022C20.8344 21.7017 20.9524 21.6934 21.0676 21.6774C21.2598 21.6506 21.4378 21.7854 21.4644 21.9779C21.491 22.1704 21.3565 22.3481 21.164 22.3747C21.018 22.3949 20.8685 22.4055 20.7199 22.4061L20.6542 22.4064C20.6536 22.4064 20.653 22.4064 20.6524 22.4064ZM22.4033 21.8762C22.2917 21.8762 22.1821 21.8234 22.1137 21.7248C22.003 21.565 22.0427 21.3458 22.2024 21.235C22.3146 21.1573 22.4214 21.0702 22.5202 20.9761C22.6608 20.842 22.8836 20.8474 23.0177 20.9881C23.1518 21.1288 23.1465 21.3516 23.0057 21.4857C22.8807 21.6048 22.7454 21.7151 22.6036 21.8134C22.5423 21.8559 22.4724 21.8762 22.4033 21.8762ZM23.5163 20.425C23.477 20.425 23.4371 20.4184 23.398 20.4045C23.2149 20.3392 23.1195 20.1378 23.1847 19.9548C23.2305 19.8266 23.2664 19.6937 23.2916 19.5597C23.3276 19.3687 23.5118 19.2431 23.7025 19.279C23.8935 19.315 24.0192 19.499 23.9832 19.69C23.9512 19.8599 23.9056 20.0286 23.8476 20.1912C23.7964 20.3352 23.6608 20.425 23.5163 20.425ZM23.5732 18.5969C23.4203 18.5969 23.2794 18.4963 23.2351 18.3419C23.1976 18.2111 23.1493 18.0821 23.0917 17.9586C23.0095 17.7825 23.0857 17.573 23.2618 17.4909C23.4381 17.4087 23.6474 17.4849 23.7295 17.661C23.8028 17.8178 23.864 17.9815 23.9117 18.1477C23.9653 18.3345 23.8574 18.5295 23.6705 18.5831C23.638 18.5924 23.6054 18.5969 23.5732 18.5969ZM22.5525 17.0786C22.4761 17.0786 22.3993 17.0539 22.3346 17.0029C22.2276 16.9184 22.1131 16.8417 21.9945 16.7748C21.8251 16.6795 21.7652 16.4648 21.8606 16.2955C21.956 16.1261 22.1707 16.0661 22.3399 16.1616C22.4902 16.2462 22.6352 16.3434 22.7708 16.4504C22.9233 16.5708 22.9494 16.7922 22.8289 16.9447C22.7595 17.0327 22.6565 17.0786 22.5525 17.0786ZM20.8393 16.4408C20.8341 16.4408 20.8288 16.4407 20.8235 16.4404C20.7841 16.4387 20.7445 16.4378 20.7048 16.4378H20.3743C20.1799 16.4378 20.0223 16.2803 20.0223 16.0858C20.0223 15.8915 20.1798 15.7339 20.3743 15.7339H20.7048C20.7544 15.7339 20.8048 15.735 20.8546 15.7372C21.0488 15.7458 21.1992 15.9102 21.1906 16.1043C21.1823 16.2933 21.0265 16.4408 20.8393 16.4408ZM18.9798 16.4378H18.515C18.3206 16.4378 18.163 16.2803 18.163 16.0859C18.163 15.8915 18.3206 15.7339 18.515 15.7339H18.9798C19.1742 15.7339 19.3317 15.8915 19.3317 16.0859C19.3317 16.2803 19.1742 16.4378 18.9798 16.4378ZM17.1204 16.4378H16.6556C16.4612 16.4378 16.3037 16.2803 16.3037 16.0859C16.3037 15.8915 16.4612 15.7339 16.6556 15.7339H17.1204C17.3148 15.7339 17.4724 15.8915 17.4724 16.0859C17.4724 16.2803 17.3148 16.4378 17.1204 16.4378ZM15.2611 16.4378H14.7962C14.6018 16.4378 14.4443 16.2803 14.4443 16.0859C14.4443 15.8915 14.6018 15.7339 14.7962 15.7339H15.2611C15.4554 15.7339 15.613 15.8915 15.613 16.0859C15.613 16.2803 15.4555 16.4378 15.2611 16.4378ZM13.4681 16.0877C13.404 16.0877 13.339 16.0702 13.2807 16.0335C13.1298 15.9383 12.9881 15.8272 12.8593 15.7034C12.7192 15.5687 12.7148 15.3459 12.8496 15.2058C12.9842 15.0658 13.2071 15.0614 13.3472 15.1961C13.4416 15.2869 13.5456 15.3684 13.6562 15.4382C13.8207 15.5418 13.8699 15.7592 13.7662 15.9236C13.6992 16.0296 13.5849 16.0877 13.4681 16.0877ZM12.4453 14.5968C12.2802 14.5968 12.1329 14.4802 12.1002 14.3122C12.0679 14.1467 12.0516 13.9766 12.0516 13.8066L12.0517 13.7789C12.054 13.5859 12.2111 13.431 12.4036 13.431C12.405 13.431 12.4064 13.431 12.4077 13.4311C12.6021 13.4333 12.7578 13.5927 12.7555 13.787L12.7554 13.8066C12.7554 13.9314 12.7674 14.0563 12.7911 14.1775C12.8282 14.3683 12.7037 14.5531 12.513 14.5903C12.4902 14.5947 12.4675 14.5968 12.4453 14.5968ZM12.8299 12.8305C12.7587 12.8305 12.687 12.8091 12.6248 12.7644C12.467 12.6511 12.4309 12.4312 12.5443 12.2733C12.6484 12.1283 12.7678 11.9934 12.899 11.8724C13.0419 11.7407 13.2645 11.7497 13.3963 11.8925C13.5281 12.0354 13.5191 12.258 13.3762 12.3898C13.28 12.4786 13.1924 12.5775 13.116 12.6839C13.0472 12.7796 12.9394 12.8305 12.8299 12.8305ZM14.3792 11.8992C14.2055 11.8992 14.0543 11.7706 14.0308 11.5937C14.0051 11.401 14.1406 11.224 14.3332 11.1984C14.4482 11.1831 14.5658 11.1753 14.6828 11.1753H14.8435C15.0379 11.1753 15.1954 11.3328 15.1954 11.5272C15.1954 11.7216 15.0379 11.8792 14.8435 11.8792H14.6828C14.5967 11.8792 14.5103 11.8848 14.426 11.896C14.4103 11.8982 14.3947 11.8992 14.3792 11.8992Z" fill="#1EA4E9"/>
</svg>
